<?xml version="1.0" encoding="utf-8"?>

<svg version="1.1"  xmlns="http://www.w3.org/2000/svg" 
	 viewBox="0 0 100 100" >
<g>
	<g>
		<path d="M63.7,71.4c0-6.5-3.9-9.4-12.6-12.8l-3.8-1.5c-10.2-4-17.2-9.8-17.2-20c0-11.5,9.7-18.5,22.4-18.5c6.7,0,12,2.1,16.3,5.3
			l-0.6,13h-6l-2.8-15.1l6.4,3.3v5c-4.9-4.8-8.6-6.5-13.9-6.5c-7.8,0-13.7,3.9-13.7,11.4c0,6.3,4.1,10,11.4,12.8l3.9,1.5
			c13.2,5.1,18.3,10.9,18.3,20.3c0,11.8-9.9,19-23.6,19c-7.5,0-14.8-2.4-19.4-5.3l0.6-14h6L38,84.7l-6.5-2.8v-4.8
			c6.2,4.5,9.6,6.5,16.4,6.5C57.4,83.6,63.7,79.2,63.7,71.4z"/>
	</g>
</g>
</svg>
